<svg width="25" height="25" viewBox="0 0 25 25" fill="none" xmlns="http://www.w3.org/2000/svg">
<path fill-rule="evenodd" clip-rule="evenodd" d="M2.85315 12.8995C2.85315 10.5203 4.72708 8.57835 7.07939 8.46932L7.28815 8.4645H8.22115C8.63536 8.4645 8.97115 8.80028 8.97115 9.2145C8.97115 9.59419 8.689 9.90799 8.32292 9.95765L8.22115 9.9645H7.28815C5.72525 9.9645 4.44741 11.1865 4.35813 12.7271L4.35315 12.8995L4.35315 17.7745C4.35315 19.3366 5.57528 20.6142 7.11573 20.7035L7.28815 20.7085H18.4181C19.9809 20.7085 21.2589 19.4866 21.3482 17.9468L21.3531 17.7745V12.8895C21.3531 11.3321 20.1355 10.0585 18.6009 9.96946L18.4291 9.9645H17.4861C17.0719 9.9645 16.7361 9.62871 16.7361 9.2145C16.7361 8.8348 17.0183 8.52101 17.3844 8.47134L17.4861 8.4645H18.4291C20.8004 8.4645 22.7362 10.3313 22.848 12.6751L22.8531 12.8895V17.7745C22.8531 20.1529 20.979 22.0947 18.6269 22.2037L18.4181 22.2085H7.28815C4.90909 22.2085 2.96701 20.3347 2.85798 17.9832L2.85315 17.7745V12.8995ZM12.3113 1.90231C12.4479 1.75976 12.6401 1.671 12.8531 1.671C13.0682 1.671 13.2621 1.76155 13.3989 1.90661L16.3004 4.82006C16.5927 5.11355 16.5917 5.58842 16.2982 5.88071C16.0314 6.14643 15.6147 6.16978 15.3215 5.95133L15.2375 5.87854L13.6031 4.23847L13.6031 14.462C13.6031 14.8762 13.2673 15.212 12.8531 15.212C12.4734 15.212 12.1596 14.9298 12.1099 14.5638L12.103 14.462L12.103 4.23679L10.4695 5.87844C10.2038 6.1453 9.78718 6.17044 9.49308 5.95324L9.4088 5.88081C9.14194 5.61513 9.11681 5.19852 9.33401 4.90443L9.40644 4.82015L12.3113 1.90231Z" fill="#2E2E5D"/>
</svg>
