<svg width="25" height="25" viewBox="0 0 25 25" fill="none" xmlns="http://www.w3.org/2000/svg">
<path fill-rule="evenodd" clip-rule="evenodd" d="M21.3693 3.5569C21.1341 3.21203 20.6691 3.12686 20.3308 3.36666C19.9925 3.60646 19.909 4.08042 20.1442 4.42529C21.548 6.48331 22.3395 9.21274 22.3395 12.1726C22.3395 15.1328 21.5479 17.8632 20.1442 19.921C19.909 20.2659 19.9925 20.7399 20.3308 20.9797C20.6691 21.2194 21.1341 21.1343 21.3693 20.7894C22.952 18.4692 23.8317 15.435 23.8317 12.1726C23.8317 8.9105 22.9521 5.87731 21.3693 3.5569ZM11.3628 3.49111L11.5177 3.48507L11.6588 3.4866C12.6688 3.53602 13.5324 4.29506 13.863 5.42063C13.9551 5.7795 14.0071 6.13048 14.0677 6.70184L14.1483 7.45061C14.3107 9.18635 14.3055 16.0045 14.1329 17.4101L14.0258 18.418C13.9834 18.758 13.935 19.0195 13.8559 19.3195C13.5143 20.4824 12.5716 21.2616 11.5293 21.2295C10.9988 21.2428 10.3526 20.9676 9.90318 20.5823L6.36175 17.6497L4.53907 17.6502C3.19634 17.6502 2.23998 16.7314 2.00507 15.3297L1.97855 15.1441C1.77963 13.7028 1.78581 11.0823 1.97847 9.50712C2.17126 8.10197 3.17795 7.06532 4.53907 7.06532L6.36075 7.06475L9.81388 4.19632C10.2319 3.83532 10.8558 3.53841 11.3628 3.49111ZM11.5327 5.00546L11.4949 5.00561C11.3745 5.00297 10.9875 5.17635 10.7675 5.36615L7.09795 8.41539C6.96482 8.52601 6.79832 8.58643 6.62655 8.58643H4.53907C3.97375 8.58643 3.55189 9.02085 3.45773 9.70653C3.2822 11.1423 3.27633 13.6291 3.45802 14.9466C3.55234 15.7393 3.9343 16.1291 4.53907 16.1291H6.62655C6.79786 16.1291 6.96396 16.1891 7.09693 16.2992L10.8536 19.4098C11.0537 19.5812 11.3611 19.7122 11.5327 19.709C11.9033 19.72 12.2695 19.4173 12.4205 18.9044C12.4991 18.6057 12.54 18.3263 12.5907 17.8127L12.6237 17.4786L12.652 17.2235C12.8148 15.8971 12.8148 8.81839 12.6517 7.48972L12.5457 6.52633C12.5207 6.32302 12.4964 6.16195 12.4694 6.02385L12.4265 5.83152C12.2695 5.29772 11.9028 4.99445 11.5327 5.00546ZM16.9177 6.47021C17.256 6.23043 17.7209 6.31563 17.9562 6.66051C18.9724 8.15056 19.5351 10.0912 19.5351 12.1732C19.5351 14.2549 18.9725 16.1946 17.9562 17.6848C17.7209 18.0297 17.256 18.1149 16.9177 17.8751C16.5794 17.6353 16.4958 17.1613 16.731 16.8165C17.5684 15.5886 18.0429 13.9526 18.0429 12.1732C18.0429 10.3934 17.5683 8.75649 16.731 7.52883C16.4958 7.18395 16.5794 6.70999 16.9177 6.47021Z" fill="#2E2E5D"/>
</svg>
